<svg width="1037" height="597" viewBox="0 0 1037 597" fill="none" xmlns="http://www.w3.org/2000/svg">
<path d="M915 36.4999H124.5H123.5V529.5H914.5L915 36.4999Z" fill="black"/>
<path d="M915 36.4999H124.5H123.5V529.5H914.5L915 36.4999Z" fill="black" fill-opacity="0.2"/>
<path d="M915 36.4999H124.5H123.5V529.5H914.5L915 36.4999Z" stroke="#141E24"/>
<g style="mix-blend-mode:darken">
<path d="M123.5 3C116 2.99994 99.4999 14.4999 99.5 27.5C99.5001 40.5001 99.5 563.5 99.5 563.5H450C451.627 570.688 454.21 573.52 461 577H579C585.251 573.027 586.952 569.943 588 563.5H938.5V28.5C938.5 13.9999 920.5 2.99994 913.5 3H123.5Z" fill="#141E24"/>
<path d="M123.5 3C116 2.99994 99.4999 14.4999 99.5 27.5C99.5001 40.5001 99.5 563.5 99.5 563.5H450C451.627 570.688 454.21 573.52 461 577H579C585.251 573.027 586.952 569.943 588 563.5H938.5V28.5C938.5 13.9999 920.5 2.99994 913.5 3H123.5Z" stroke="#343634" stroke-width="5"/>
</g>
<path d="M450 565H1V582L12 590.5H1027L1036.5 582V565H587.5L579 577.5H459L450 565Z" fill="#343634" stroke="#343634"/>
<path d="M28 596L22 591.5H1015.5L1010.5 596H28Z" fill="#141E24" stroke="#141E24"/>
</svg>
